<svg width="600" height="683" viewBox="0 0 600 683" fill="none" xmlns="http://www.w3.org/2000/svg">
<path d="M481.845 356.29C460.125 318.28 457.41 272.125 481.845 235.473C494.063 217.825 499.493 197.463 499.493 175.743C499.493 113.298 446.55 63.0707 380.032 63.0707C370.529 63.0707 361.026 64.4282 351.524 65.7856C306.726 75.2881 260.57 61.7132 223.917 34.5632C200.839 18.2733 172.332 8.77079 141.109 10.1283C80.0204 12.8433 29.7923 61.7132 23.0047 121.443C20.2897 149.95 27.0773 178.458 40.6524 200.178C59.6577 231.4 54.2276 272.125 29.7923 299.275C8.07203 326.425 -4.14562 361.72 1.28446 401.087C9.42956 455.387 52.8701 500.185 108.528 509.687C132.964 513.76 157.399 509.687 177.762 501.542C194.052 494.755 214.415 498.827 225.275 513.76C255.14 558.557 309.441 585.707 369.171 577.562C435.69 568.059 489.991 513.76 496.778 447.242C504.923 414.662 496.778 382.082 481.845 356.29Z" fill="#F0E8D2"/>
</svg>
