<svg width="16" height="16" viewBox="0 0 16 16" fill="none" xmlns="http://www.w3.org/2000/svg">
<g clip-path="url(#clip0_668_58)">
<path d="M15.5 7.75C15.5 12.0302 12.0302 15.5 7.75 15.5C3.46978 15.5 0 12.0302 0 7.75C0 3.46978 3.46978 0 7.75 0C12.0302 0 15.5 3.46978 15.5 7.75ZM6.85356 11.8536L12.6036 6.10356C12.7988 5.90831 12.7988 5.59172 12.6036 5.39647L11.8965 4.68937C11.7012 4.49409 11.3846 4.49409 11.1893 4.68937L6.5 9.37869L4.31066 7.18934C4.11541 6.99409 3.79881 6.99409 3.60353 7.18934L2.89644 7.89644C2.70119 8.09169 2.70119 8.40828 2.89644 8.60353L6.14644 11.8535C6.34172 12.0488 6.65828 12.0488 6.85356 11.8536Z" fill="#8F7939"/>
</g>
<defs>
<clipPath id="clip0_668_58">
<rect width="16" height="16" fill="white"/>
</clipPath>
</defs>
</svg>
