<svg width="26" height="26" viewBox="0 0 26 26" fill="none" xmlns="http://www.w3.org/2000/svg">
<path d="M13 23.8333C12.7472 23.8333 12.5306 23.7611 12.35 23.6166C12.1695 23.4722 12.034 23.2826 11.9438 23.0479C11.6007 22.0368 11.1674 21.0888 10.6438 20.2041C10.1382 19.3194 9.42502 18.2812 8.50419 17.0895C7.58335 15.8979 6.83405 14.7604 6.25627 13.677C5.69655 12.5937 5.41669 11.2847 5.41669 9.74996C5.41669 7.63746 6.14794 5.84996 7.61044 4.38746C9.09099 2.9069 10.8875 2.16663 13 2.16663C15.1125 2.16663 16.9 2.9069 18.3625 4.38746C19.8431 5.84996 20.5834 7.63746 20.5834 9.74996C20.5834 11.393 20.2674 12.7652 19.6354 13.8666C19.0215 14.95 18.3084 16.0243 17.4959 17.0895C16.5209 18.3895 15.7806 19.4729 15.275 20.3395C14.7875 21.1882 14.3813 22.0909 14.0563 23.0479C13.966 23.3007 13.8215 23.4993 13.6229 23.6437C13.4424 23.7701 13.2347 23.8333 13 23.8333ZM13 12.4583C13.7584 12.4583 14.3993 12.1965 14.9229 11.6729C15.4465 11.1493 15.7084 10.5083 15.7084 9.74996C15.7084 8.99162 15.4465 8.35065 14.9229 7.82704C14.3993 7.30343 13.7584 7.04163 13 7.04163C12.2417 7.04163 11.6007 7.30343 11.0771 7.82704C10.5535 8.35065 10.2917 8.99162 10.2917 9.74996C10.2917 10.5083 10.5535 11.1493 11.0771 11.6729C11.6007 12.1965 12.2417 12.4583 13 12.4583Z" fill="#1D1B20"/>
</svg>
