<svg width="64" height="64" viewBox="0 0 64 64" fill="none" xmlns="http://www.w3.org/2000/svg">
<circle cx="32" cy="32" r="31" fill="black" stroke="white" stroke-width="2"/>
<path d="M28.5938 43.3887H23.9062C22.6123 43.3887 21.5625 42.3389 21.5625 41.0449V23.8574C21.5625 22.5635 22.6123 21.5137 23.9062 21.5137H28.5938C29.8877 21.5137 30.9375 22.5635 30.9375 23.8574V41.0449C30.9375 42.3389 29.8877 43.3887 28.5938 43.3887ZM43.4375 41.0449V23.8574C43.4375 22.5635 42.3877 21.5137 41.0938 21.5137H36.4062C35.1123 21.5137 34.0625 22.5635 34.0625 23.8574V41.0449C34.0625 42.3389 35.1123 43.3887 36.4062 43.3887H41.0938C42.3877 43.3887 43.4375 42.3389 43.4375 41.0449Z" fill="white"/>
</svg>
