<svg width="77" height="77" viewBox="0 0 77 77" fill="none" xmlns="http://www.w3.org/2000/svg">
<rect x="22" y="22" width="31.6855" height="31.6477" fill="white"/>
<path d="M72.984 20.725C72.15 17.5847 69.6927 15.1115 66.5728 14.2722C60.9176 12.7471 38.2411 12.7471 38.2411 12.7471C38.2411 12.7471 15.5647 12.7471 9.90936 14.2722C6.78939 15.1117 4.33214 17.5847 3.49814 20.725C1.98283 26.417 1.98283 38.2927 1.98283 38.2927C1.98283 38.2927 1.98283 50.1685 3.49814 55.8604C4.33214 59.0007 6.78939 61.3709 9.90936 62.2102C15.5647 63.7353 38.2411 63.7353 38.2411 63.7353C38.2411 63.7353 60.9175 63.7353 66.5728 62.2102C69.6927 61.3709 72.15 59.0007 72.984 55.8604C74.4993 50.1685 74.4993 38.2927 74.4993 38.2927C74.4993 38.2927 74.4993 26.417 72.984 20.725ZM30.8246 49.075V27.5104L49.7777 38.293L30.8246 49.075Z" fill="#EC221F"/>
</svg>
