<svg width="20" height="20" viewBox="0 0 20 20" fill="none" xmlns="http://www.w3.org/2000/svg">
<path d="M16.875 1.25H3.125C2.08984 1.25 1.25 2.08984 1.25 3.125V16.875C1.25 17.9102 2.08984 18.75 3.125 18.75H16.875C17.9102 18.75 18.75 17.9102 18.75 16.875V3.125C18.75 2.08984 17.9102 1.25 16.875 1.25ZM6.21094 15.0195C5.99609 15.3945 5.51562 15.5195 5.14453 15.3047C4.76953 15.0898 4.64453 14.6094 4.85938 14.2383L5.41797 13.2734C6.04688 13.082 6.5625 13.2305 6.96484 13.7188L6.21094 15.0195ZM11.6367 12.9141H4.53125C4.10156 12.9141 3.75 12.5625 3.75 12.1328C3.75 11.7031 4.10156 11.3516 4.53125 11.3516H6.52344L9.07812 6.92969L8.27734 5.54688C8.0625 5.17188 8.19141 4.69531 8.5625 4.48047C8.9375 4.26562 9.41406 4.39453 9.62891 4.76562L9.97656 5.36719L10.3242 4.76562C10.5391 4.39062 11.0195 4.26562 11.3906 4.48047C11.7656 4.69531 11.8906 5.17578 11.6758 5.54688L8.32422 11.3516H10.75C11.5391 11.3516 11.9805 12.2773 11.6367 12.9141ZM15.4688 12.9141H14.3359L15.1016 14.2383C15.3164 14.6133 15.1875 15.0898 14.8164 15.3047C14.4414 15.5195 13.9648 15.3906 13.75 15.0195C12.4648 12.7969 11.5039 11.125 10.8594 10.0156C10.207 8.88281 10.6719 7.75 11.1367 7.36719C11.6484 8.25391 12.4141 9.58203 13.4375 11.3516H15.4688C15.8984 11.3516 16.25 11.7031 16.25 12.1328C16.25 12.5664 15.8984 12.9141 15.4688 12.9141Z" fill="white"/>
</svg>
