<svg width="20" height="27" viewBox="0 0 20 27" fill="none" xmlns="http://www.w3.org/2000/svg">
<path d="M15.6969 9.4625C15.8187 9.36563 16 9.45625 16 9.60938V16C16 16.8281 15.3281 17.5 14.5 17.5H1.5C0.671875 17.5 0 16.8281 0 16V9.6125C0 9.45625 0.178125 9.36875 0.303125 9.46562C1.00312 10.0094 1.93125 10.7 5.11875 13.0156C5.77813 13.4969 6.89062 14.5094 8 14.5031C9.11563 14.5125 10.25 13.4781 10.8844 13.0156C14.0719 10.7 14.9969 10.0062 15.6969 9.4625ZM8 13.5C8.725 13.5125 9.76875 12.5875 10.2937 12.2063C14.4406 9.19688 14.7562 8.93437 15.7125 8.18437C15.8937 8.04375 16 7.825 16 7.59375V7C16 6.17188 15.3281 5.5 14.5 5.5H1.5C0.671875 5.5 0 6.17188 0 7V7.59375C0 7.825 0.10625 8.04062 0.2875 8.18437C1.24375 8.93125 1.55938 9.19688 5.70625 12.2063C6.23125 12.5875 7.275 13.5125 8 13.5Z" fill="white"/>
</svg>
