<svg width="24" height="24" viewBox="0 0 24 24" fill="none" xmlns="http://www.w3.org/2000/svg">
<g clip-path="url(#clip0_583_738)">
<path d="M23.73 11.625C23.73 5.20312 18.5269 0 12.105 0C5.68311 0 0.47998 5.20312 0.47998 11.625C0.47998 17.4272 4.73107 22.2366 10.2886 23.1094V14.9855H7.33545V11.625H10.2886V9.06375C10.2886 6.15047 12.023 4.54125 14.6794 4.54125C15.9515 4.54125 17.2819 4.76813 17.2819 4.76813V7.6275H15.8156C14.3719 7.6275 13.9214 8.52375 13.9214 9.44297V11.625H17.1454L16.6298 14.9855H13.9214V23.1094C19.4789 22.2366 23.73 17.4272 23.73 11.625Z" fill="white"/>
</g>
<defs>
<clipPath id="clip0_583_738">
<rect width="24" height="24" fill="white"/>
</clipPath>
</defs>
</svg>
