<svg width="24" height="24" viewBox="0 0 24 24" fill="none" xmlns="http://www.w3.org/2000/svg">
<path d="M12.0047 6.60977C9.02341 6.60977 6.61873 9.01445 6.61873 11.9957C6.61873 14.977 9.02341 17.3816 12.0047 17.3816C14.9859 17.3816 17.3906 14.977 17.3906 11.9957C17.3906 9.01445 14.9859 6.60977 12.0047 6.60977ZM12.0047 15.4973C10.0781 15.4973 8.5031 13.927 8.5031 11.9957C8.5031 10.0645 10.0734 8.49414 12.0047 8.49414C13.9359 8.49414 15.5062 10.0645 15.5062 11.9957C15.5062 13.927 13.9312 15.4973 12.0047 15.4973ZM18.8672 6.38945C18.8672 7.08789 18.3047 7.6457 17.6109 7.6457C16.9125 7.6457 16.3547 7.0832 16.3547 6.38945C16.3547 5.6957 16.9172 5.1332 17.6109 5.1332C18.3047 5.1332 18.8672 5.6957 18.8672 6.38945ZM22.4344 7.66445C22.3547 5.98164 21.9703 4.49102 20.7375 3.26289C19.5094 2.03477 18.0187 1.65039 16.3359 1.56602C14.6015 1.46758 9.4031 1.46758 7.66873 1.56602C5.9906 1.6457 4.49998 2.03008 3.26716 3.2582C2.03435 4.48633 1.65466 5.97695 1.57029 7.65977C1.47185 9.39414 1.47185 14.5926 1.57029 16.327C1.64998 18.0098 2.03435 19.5004 3.26716 20.7285C4.49998 21.9566 5.98591 22.341 7.66873 22.4254C9.4031 22.5238 14.6015 22.5238 16.3359 22.4254C18.0187 22.3457 19.5094 21.9613 20.7375 20.7285C21.9656 19.5004 22.35 18.0098 22.4344 16.327C22.5328 14.5926 22.5328 9.39883 22.4344 7.66445ZM20.1937 18.1879C19.8281 19.1066 19.1203 19.8145 18.1969 20.1848C16.814 20.7332 13.5328 20.6066 12.0047 20.6066C10.4765 20.6066 7.1906 20.7285 5.81248 20.1848C4.89373 19.8191 4.18591 19.1113 3.8156 18.1879C3.26716 16.8051 3.39373 13.5238 3.39373 11.9957C3.39373 10.4676 3.27185 7.18164 3.8156 5.80352C4.18123 4.88477 4.88904 4.17695 5.81248 3.80664C7.19529 3.2582 10.4765 3.38477 12.0047 3.38477C13.5328 3.38477 16.8187 3.26289 18.1969 3.80664C19.1156 4.17227 19.8234 4.88008 20.1937 5.80352C20.7422 7.18633 20.6156 10.4676 20.6156 11.9957C20.6156 13.5238 20.7422 16.8098 20.1937 18.1879Z" fill="white"/>
</svg>
