<svg width="24" height="24" viewBox="0 0 24 24" fill="none" xmlns="http://www.w3.org/2000/svg">
<path d="M6.20062 20.9995H1.84688V6.97922H6.20062V20.9995ZM4.02141 5.06672C2.62922 5.06672 1.5 3.91359 1.5 2.52141C1.5 1.85269 1.76565 1.21136 2.2385 0.738503C2.71136 0.265647 3.35269 0 4.02141 0C4.69012 0 5.33145 0.265647 5.80431 0.738503C6.27716 1.21136 6.54281 1.85269 6.54281 2.52141C6.54281 3.91359 5.41313 5.06672 4.02141 5.06672ZM22.4953 20.9995H18.1509V14.1745C18.1509 12.548 18.1181 10.462 15.8873 10.462C13.6237 10.462 13.2769 12.2292 13.2769 14.0573V20.9995H8.92781V6.97922H13.1034V8.89172H13.1644C13.7456 7.79016 15.1655 6.62766 17.2838 6.62766C21.69 6.62766 22.5 9.52922 22.5 13.298V20.9995H22.4953Z" fill="white"/>
</svg>
