<svg width="18" height="18" viewBox="0 0 18 18" fill="none" xmlns="http://www.w3.org/2000/svg">
<g clip-path="url(#clip0_583_698)">
<path d="M8.3063 17.6368C3.19816 10.2316 2.25 9.47155 2.25 6.75C2.25 3.02207 5.27207 0 9 0C12.7279 0 15.75 3.02207 15.75 6.75C15.75 9.47155 14.8018 10.2316 9.6937 17.6368C9.35849 18.1211 8.64148 18.121 8.3063 17.6368ZM9 9.5625C10.5533 9.5625 11.8125 8.30331 11.8125 6.75C11.8125 5.19669 10.5533 3.9375 9 3.9375C7.44669 3.9375 6.1875 5.19669 6.1875 6.75C6.1875 8.30331 7.44669 9.5625 9 9.5625Z" fill="white"/>
</g>
<defs>
<clipPath id="clip0_583_698">
<rect width="18" height="18" fill="white"/>
</clipPath>
</defs>
</svg>
