<svg width="24" height="24" viewBox="0 0 24 24" fill="none" xmlns="http://www.w3.org/2000/svg">
<path d="M22.9023 6.50346C22.6406 5.51804 21.8695 4.74196 20.8904 4.47858C19.1159 4 12 4 12 4C12 4 4.88415 4 3.10953 4.47858C2.13048 4.742 1.3594 5.51804 1.09769 6.50346C0.622192 8.28958 0.622192 12.0162 0.622192 12.0162C0.622192 12.0162 0.622192 15.7428 1.09769 17.5289C1.3594 18.5143 2.13048 19.258 3.10953 19.5214C4.88415 20 12 20 12 20C12 20 19.1158 20 20.8904 19.5214C21.8695 19.258 22.6406 18.5143 22.9023 17.5289C23.3778 15.7428 23.3778 12.0162 23.3778 12.0162C23.3778 12.0162 23.3778 8.28958 22.9023 6.50346ZM9.67269 15.3996V8.63271L15.6202 12.0163L9.67269 15.3996Z" fill="white"/>
</svg>
